HIERARCHY
ROOT Hips
{
	OFFSET 0.000000 118.718704 0.000000
	CHANNELS 6 Xposition Yposition Zposition Xrotation Yrotation Zrotation
	JOINT Spine
	{
		OFFSET 0.000000 13.214798 0.000000
		CHANNELS 3 Xrotation Yrotation Zrotation
		JOINT Spine1
		{
			OFFSET -0.007800 9.224197 0.000000
			CHANNELS 3 Xrotation Yrotation Zrotation
			JOINT Spine2
			{
				OFFSET -0.005300 11.063004 0.000000
				CHANNELS 3 Xrotation Yrotation Zrotation
				JOINT Neck
				{
					OFFSET -0.006000 23.723495 -1.446200
					CHANNELS 3 Xrotation Yrotation Zrotation
					JOINT Head
					{
						OFFSET 0.000000 10.037094 3.529500
						CHANNELS 3 Xrotation Yrotation Zrotation
						JOINT HeadTop_End
						{
							OFFSET 0.000000 17.783005 3.803600
							CHANNELS 3 Xrotation Yrotation Zrotation
							End Site
							{
								OFFSET 0.000000 18.185226 0.000000
							}
						}
					}
				}
				JOINT LeftShoulder
				{
					OFFSET 11.304900 19.886002 -3.966000
					CHANNELS 3 Xrotation Yrotation Zrotation
					JOINT LeftArm
					{
						OFFSET 11.306598 -5.748199 -0.270300
						CHANNELS 3 Xrotation Yrotation Zrotation
						JOINT LeftForeArm
						{
							OFFSET 30.736700 0.000000 0.000000
							CHANNELS 3 Xrotation Yrotation Zrotation
							JOINT LeftHand
							{
								OFFSET 26.713104 0.000000 0.000000
								CHANNELS 3 Xrotation Yrotation Zrotation
								JOINT LeftHandThumb1
								{
									OFFSET 4.344902 -2.566803 2.604372
									CHANNELS 3 Xrotation Yrotation Zrotation
									JOINT LeftHandThumb2
									{
										OFFSET 3.503593 -2.022797 2.022803
										CHANNELS 3 Xrotation Yrotation Zrotation
										JOINT LeftHandThumb3
										{
											OFFSET 2.816719 -1.626236 1.626234
											CHANNELS 3 Xrotation Yrotation Zrotation
											JOINT LeftHandThumb4
											{
												OFFSET 3.026596 -1.747406 1.747405
												CHANNELS 3 Xrotation Yrotation Zrotation
												End Site
												{
													OFFSET 0.001099 3.907318 -0.001891
												}
											}
										}
									}
								}
								JOINT LeftHandIndex1
								{
									OFFSET 12.111603 -0.315857 3.402456
									CHANNELS 3 Xrotation Yrotation Zrotation
									JOINT LeftHandIndex2
									{
										OFFSET 4.509102 0.000000 0.000000
										CHANNELS 3 Xrotation Yrotation Zrotation
										JOINT LeftHandIndex3
										{
											OFFSET 2.907204 0.000000 0.000000
											CHANNELS 3 Xrotation Yrotation Zrotation
											JOINT LeftHandIndex4
											{
												OFFSET 2.981697 0.000000 0.000000
												CHANNELS 3 Xrotation Yrotation Zrotation
												End Site
												{
													OFFSET 0.000000 2.981705 -0.002405
												}
											}
										}
									}
								}
								JOINT LeftHandMiddle1
								{
									OFFSET 13.093796 0.000000 0.000000
									CHANNELS 3 Xrotation Yrotation Zrotation
									JOINT LeftHandMiddle2
									{
										OFFSET 3.620201 0.000000 0.000000
										CHANNELS 3 Xrotation Yrotation Zrotation
										JOINT LeftHandMiddle3
										{
											OFFSET 2.832535 0.000000 0.000000
											CHANNELS 3 Xrotation Yrotation Zrotation
											JOINT LeftHandMiddle4
											{
												OFFSET 4.715599 0.000000 0.000000
												CHANNELS 3 Xrotation Yrotation Zrotation
												End Site
												{
													OFFSET 0.000000 4.715607 -0.003807
												}
											}
										}
									}
								}
								JOINT LeftHandRing1
								{
									OFFSET 12.918800 0.015854 -3.523114
									CHANNELS 3 Xrotation Yrotation Zrotation
									JOINT LeftHandRing2
									{
										OFFSET 2.935997 0.000000 0.000000
										CHANNELS 3 Xrotation Yrotation Zrotation
										JOINT LeftHandRing3
										{
											OFFSET 3.435600 0.000000 0.000000
											CHANNELS 3 Xrotation Yrotation Zrotation
											JOINT LeftHandRing4
											{
												OFFSET 3.120598 0.000000 0.000000
												CHANNELS 3 Xrotation Yrotation Zrotation
												End Site
												{
													OFFSET 0.000000 3.120605 -0.002517
												}
											}
										}
									}
								}
								JOINT LeftHandPinky1
								{
									OFFSET 11.479301 -0.316162 -6.518347
									CHANNELS 3 Xrotation Yrotation Zrotation
									JOINT LeftHandPinky2
									{
										OFFSET 2.474701 0.000000 0.000000
										CHANNELS 3 Xrotation Yrotation Zrotation
										JOINT LeftHandPinky3
										{
											OFFSET 2.073799 0.000000 0.000000
											CHANNELS 3 Xrotation Yrotation Zrotation
											JOINT LeftHandPinky4
											{
												OFFSET 2.978897 0.000000 0.000000
												CHANNELS 3 Xrotation Yrotation Zrotation
												End Site
												{
													OFFSET 0.000000 2.978897 -0.002403
												}
											}
										}
									}
								}
							}
						}
					}
				}
				JOINT RightShoulder
				{
					OFFSET -11.278600 19.886002 -3.966000
					CHANNELS 3 Xrotation Yrotation Zrotation
					JOINT RightArm
					{
						OFFSET -11.306598 -5.748199 -0.270300
						CHANNELS 3 Xrotation Yrotation Zrotation
						JOINT RightForeArm
						{
							OFFSET -30.736702 0.000000 0.000000
							CHANNELS 3 Xrotation Yrotation Zrotation
							JOINT RightHand
							{
								OFFSET -26.713104 0.000000 0.000000
								CHANNELS 3 Xrotation Yrotation Zrotation
								JOINT RightHandThumb1
								{
									OFFSET -6.800003 -2.789825 2.712297
									CHANNELS 3 Xrotation Yrotation Zrotation
									JOINT RightHandThumb2
									{
										OFFSET -3.503593 -2.022797 2.022803
										CHANNELS 3 Xrotation Yrotation Zrotation
										JOINT RightHandThumb3
										{
											OFFSET -2.816719 -1.626236 1.626234
											CHANNELS 3 Xrotation Yrotation Zrotation
											JOINT RightHandThumb4
											{
												OFFSET -3.026566 -1.747391 1.747391
												CHANNELS 3 Xrotation Yrotation Zrotation
												End Site
												{
													OFFSET -0.004784 3.907272 -0.008546
												}
											}
										}
									}
								}
								JOINT RightHandIndex1
								{
									OFFSET -14.497482 -1.249008 3.526457
									CHANNELS 3 Xrotation Yrotation Zrotation
									JOINT RightHandIndex2
									{
										OFFSET -4.509102 0.000000 0.000000
										CHANNELS 3 Xrotation Yrotation Zrotation
										JOINT RightHandIndex3
										{
											OFFSET -2.907204 0.000000 0.000000
											CHANNELS 3 Xrotation Yrotation Zrotation
											JOINT RightHandIndex4
											{
												OFFSET -2.981697 0.000000 0.000000
												CHANNELS 3 Xrotation Yrotation Zrotation
												End Site
												{
													OFFSET 0.000000 2.981689 -0.010831
												}
											}
										}
									}
								}
								JOINT RightHandMiddle1
								{
									OFFSET -15.099701 0.000000 0.000000
									CHANNELS 3 Xrotation Yrotation Zrotation
									JOINT RightHandMiddle2
									{
										OFFSET -3.620201 0.000000 0.000000
										CHANNELS 3 Xrotation Yrotation Zrotation
										JOINT RightHandMiddle3
										{
											OFFSET -2.832535 0.000000 0.000000
											CHANNELS 3 Xrotation Yrotation Zrotation
											JOINT RightHandMiddle4
											{
												OFFSET -4.715599 0.000000 0.000000
												CHANNELS 3 Xrotation Yrotation Zrotation
												End Site
												{
													OFFSET 0.000099 4.715576 -0.017130
												}
											}
										}
									}
								}
								JOINT RightHandRing1
								{
									OFFSET -15.621628 -0.772964 -3.512012
									CHANNELS 3 Xrotation Yrotation Zrotation
									JOINT RightHandRing2
									{
										OFFSET -2.935997 0.000000 0.000000
										CHANNELS 3 Xrotation Yrotation Zrotation
										JOINT RightHandRing3
										{
											OFFSET -3.435600 0.000000 0.000000
											CHANNELS 3 Xrotation Yrotation Zrotation
											JOINT RightHandRing4
											{
												OFFSET -3.120598 0.000000 0.000000
												CHANNELS 3 Xrotation Yrotation Zrotation
												End Site
												{
													OFFSET 0.000000 3.120590 -0.011336
												}
											}
										}
									}
								}
								JOINT RightHandPinky1
								{
									OFFSET -14.089645 -1.001175 -6.433213
									CHANNELS 3 Xrotation Yrotation Zrotation
									JOINT RightHandPinky2
									{
										OFFSET -2.474701 0.000000 0.000000
										CHANNELS 3 Xrotation Yrotation Zrotation
										JOINT RightHandPinky3
										{
											OFFSET -2.073799 0.000000 0.000000
											CHANNELS 3 Xrotation Yrotation Zrotation
											JOINT RightHandPinky4
											{
												OFFSET -2.978897 0.000000 0.000000
												CHANNELS 3 Xrotation Yrotation Zrotation
												End Site
												{
													OFFSET -0.000099 2.978882 -0.010821
												}
											}
										}
									}
								}
							}
						}
					}
				}
			}
		}
	}
	JOINT LeftUpLeg
	{
		OFFSET 9.418100 -4.875099 1.897700
		CHANNELS 3 Xrotation Yrotation Zrotation
		JOINT LeftLeg
		{
			OFFSET 0.162075 -48.429626 2.366100
			CHANNELS 3 Xrotation Yrotation Zrotation
			JOINT LeftFoot
			{
				OFFSET -0.162075 -51.286976 -5.566600
				CHANNELS 3 Xrotation Yrotation Zrotation
				JOINT LeftToeBase
				{
					OFFSET 1.731600 -13.715200 15.999399
					CHANNELS 3 Xrotation Yrotation Zrotation
					JOINT LeftToe_End
					{
						OFFSET 1.266700 -0.078000 10.510900
						CHANNELS 3 Xrotation Yrotation Zrotation
						End Site
						{
							OFFSET 0.000000 10.587238 0.000000
						}
					}
				}
			}
		}
	}
	JOINT RightUpLeg
	{
		OFFSET -9.418100 -4.875099 1.897700
		CHANNELS 3 Xrotation Yrotation Zrotation
		JOINT RightLeg
		{
			OFFSET -0.162176 -48.429573 2.366200
			CHANNELS 3 Xrotation Yrotation Zrotation
			JOINT RightFoot
			{
				OFFSET 0.162176 -51.287025 -5.566700
				CHANNELS 3 Xrotation Yrotation Zrotation
				JOINT RightToeBase
				{
					OFFSET -1.731600 -13.715200 15.999400
					CHANNELS 3 Xrotation Yrotation Zrotation
					JOINT RightToe_End
					{
						OFFSET -1.266700 -0.078000 10.510900
						CHANNELS 3 Xrotation Yrotation Zrotation
						End Site
						{
							OFFSET 0.000000 10.587238 0.000000
						}
					}
				}
			}
		}
	}
}
MOTION
Frames: 4
Frame Time: 0.033333
0.146372 117.174294 -1.931901 -3.756193 -5.212043 -3.958162 3.291566 1.548912 2.936578 1.151890 0.328520 1.553622 1.126015 0.351591 1.556861 5.626312 -0.078963 0.455688 -7.563349 1.375679 -0.080827 -0.000000 -0.000000 0.000000 1.048173 -17.442409 -12.319472 3.913172 -19.990338 -69.766325 -0.000001 -1.459358 0.000009 -33.230390 -1.364810 -6.186621 -0.663002 2.160314 4.832483 11.855702 25.421836 17.059799 -13.812694 3.542426 9.037273 -0.000001 -0.000001 0.000002 0.027448 -0.970536 -7.593937 0.267863 1.752894 -17.375714 0.057683 0.820959 -8.037988 -0.000001 0.000000 0.000004 -0.076597 2.664765 -15.696934 0.268812 1.755897 -17.406483 0.300560 1.854076 -18.414284 -0.000000 0.000000 0.000001 0.133799 3.633749 -21.134238 0.386572 2.094660 -20.910552 0.283003 1.800506 -17.863692 0.000000 0.000000 0.000002 0.924883 5.569909 -27.126714 0.268796 1.755844 -17.405876 0.241909 1.667694 -16.505914 0.000000 -0.000000 -0.000002 1.205220 15.344170 14.705954 13.158856 27.555121 58.785171 -0.000001 6.693729 0.000009 -20.179082 -0.514090 6.782771 -1.665259 -0.174477 -4.219020 12.710925 -29.825332 -16.130969 -15.549412 -3.559403 -12.707138 0.000001 0.000000 -0.000002 0.038560 1.262299 6.823743 0.213720 -1.396028 17.407044 0.046032 -0.653854 8.053217 0.000000 0.000000 -0.000001 -0.136230 -2.205103 14.998891 0.214450 -1.398346 17.436863 0.239771 -1.476533 18.446268 0.000003 -0.000002 -0.000002 0.030608 -3.075758 20.451026 0.308450 -1.668283 20.948540 0.225825 -1.434040 17.897100 -0.000000 0.000002 0.000000 0.748878 -4.885240 26.473789 0.214460 -1.398375 17.437244 0.193008 -1.328181 16.535821 -0.000001 -0.000001 -0.000001 -10.887973 14.671323 10.733615 11.645410 2.021631 4.049116 1.848481 0.459161 -7.148754 -4.935671 -0.000008 -0.000004 0.000000 0.000000 -0.000000 0.479611 -10.410252 3.613100 7.491500 -9.720316 -3.274801 -3.597879 -1.675553 3.245458 -7.282875 -0.000006 -0.000001 0.000000 0.000000 0.000000 
0.148190 117.167168 -1.929460 -3.760729 -5.198345 -3.955567 3.291624 1.548785 2.934465 1.151890 0.328520 1.553622 1.126014 0.351591 1.556861 5.607577 -0.078963 0.455690 -7.618384 1.393318 -0.080955 0.000000 0.000000 -0.000000 1.061329 -17.442256 -12.259702 3.901661 -20.022459 -69.829866 -0.000006 -1.459368 0.000009 -33.249453 -1.348983 -6.247481 -0.663005 2.160315 4.832498 11.855697 25.421843 17.059816 -13.812687 3.542426 9.037257 0.000001 -0.000001 -0.000000 0.027450 -0.970538 -7.593865 0.267871 1.752894 -17.375711 0.057682 0.820952 -8.038003 -0.000001 0.000000 0.000001 -0.076596 2.664765 -15.696932 0.268816 1.755903 -17.406471 0.300557 1.854068 -18.414292 -0.000000 0.000001 0.000004 0.133798 3.633752 -21.134205 0.386570 2.094663 -20.910549 0.283004 1.800506 -17.863692 -0.000001 0.000000 0.000003 0.924880 5.569907 -27.126684 0.268792 1.755838 -17.405875 0.241908 1.667705 -16.505885 0.000000 -0.000000 -0.000002 1.204207 15.374327 14.680460 13.210473 27.553390 58.777589 -0.000001 6.748594 0.000005 -20.222595 -0.479350 6.774504 -1.665260 -0.174476 -4.219021 12.710923 -29.825336 -16.130969 -15.549412 -3.559404 -12.707137 0.000001 0.000000 0.000000 0.038560 1.262299 6.823744 0.213719 -1.396029 17.407046 0.046030 -0.653854 8.053223 -0.000002 0.000001 0.000002 -0.136231 -2.205102 14.998894 0.214451 -1.398346 17.436860 0.239770 -1.476537 18.446263 -0.000000 0.000000 -0.000001 0.030608 -3.075758 20.451026 0.308448 -1.668284 20.948539 0.225822 -1.434042 17.897100 0.000000 -0.000000 -0.000001 0.748875 -4.885240 26.473793 0.214462 -1.398374 17.437251 0.193007 -1.328183 16.535818 -0.000001 0.000001 -0.000000 -10.892872 14.670391 10.733141 11.677957 2.021578 4.049038 1.806945 0.459484 -7.136273 -4.935670 0.000003 -0.000004 0.000000 -0.000001 -0.000000 0.462087 -10.409882 3.612960 7.545594 -9.731826 -3.274926 -3.630546 -1.686827 3.245999 -7.293308 0.000012 0.000001 0.000000 -0.000000 -0.000000 
0.150711 117.159187 -1.923997 -3.775764 -5.181553 -3.954197 3.291669 1.548599 2.932824 1.151890 0.328520 1.553622 1.126014 0.351591 1.556860 5.600027 -0.075284 0.455691 -7.625767 1.432240 -0.092239 0.000000 -0.000000 -0.000000 1.083821 -17.453930 -12.107857 3.853820 -20.046522 -69.984816 -0.000004 -1.459370 0.000007 -33.264855 -1.331633 -6.310279 -0.650818 2.178333 4.821452 11.854143 25.431815 17.061760 -13.812686 3.542428 9.037279 0.000003 0.000001 -0.000002 0.025498 -0.967079 -7.627467 0.268371 1.754485 -17.391994 0.057911 0.822580 -8.054034 -0.000000 0.000000 0.000001 -0.076484 2.666983 -15.718099 0.268816 1.755904 -17.406472 0.300557 1.854072 -18.414279 0.000000 0.000001 0.000003 0.134094 3.635076 -21.147338 0.386574 2.094661 -20.910566 0.282998 1.800506 -17.863680 0.000000 -0.000001 0.000001 0.926769 5.572828 -27.160275 0.268792 1.755842 -17.405868 0.241909 1.667694 -16.505905 -0.000000 -0.000000 -0.000000 1.219257 15.432216 14.566688 13.286332 27.564642 58.819765 -0.000006 6.853313 -0.000013 -20.304513 -0.432271 6.759475 -1.665258 -0.174476 -4.219021 12.710924 -29.825336 -16.130967 -15.549412 -3.559402 -12.707134 0.000003 0.000000 0.000003 0.038561 1.262299 6.823744 0.213725 -1.396028 17.407048 0.046029 -0.653853 8.053222 -0.000000 0.000001 0.000000 -0.136228 -2.205103 14.998892 0.214449 -1.398346 17.436865 0.239767 -1.476533 18.446268 0.000000 0.000001 -0.000002 0.030608 -3.075758 20.451028 0.308452 -1.668284 20.948537 0.225821 -1.434041 17.897099 -0.000001 -0.000000 -0.000003 0.748875 -4.885241 26.473793 0.214461 -1.398375 17.437248 0.193010 -1.328183 16.535816 -0.000001 -0.000001 0.000002 -10.893832 14.669622 10.732736 11.713226 2.016229 4.048683 1.758389 0.459732 -7.122578 -4.935678 0.000008 0.000001 0.000000 0.000000 -0.000000 0.453064 -10.409763 3.613667 7.602371 -9.711043 -3.279109 -3.662100 -1.730299 3.247876 -7.303108 -0.000004 -0.000000 0.000000 0.000002 0.000000 
0.153919 117.151558 -1.911747 -3.799850 -5.168614 -3.954818 3.291689 1.548268 2.932108 1.140426 0.328519 1.553622 1.114539 0.351591 1.556861 5.594788 -0.049223 0.443118 -7.521787 1.588428 -0.134391 -0.000000 0.000000 -0.000000 1.117711 -17.469908 -11.874724 3.766553 -20.047630 -70.227117 -0.000005 -1.449803 -0.000002 -33.252257 -1.311952 -6.316637 -0.646190 2.189283 4.820236 11.865960 25.459127 17.064724 -13.812690 3.542425 9.037268 0.000004 0.000002 -0.000000 0.024053 -0.949273 -7.679594 0.267873 1.752905 -17.375815 0.057683 0.820965 -8.038087 -0.000001 0.000000 0.000002 -0.076251 2.671548 -15.761577 0.268814 1.755900 -17.406479 0.300557 1.854068 -18.414299 0.000000 0.000002 0.000004 0.134700 3.637862 -21.174860 0.386575 2.094659 -20.910585 0.283001 1.800507 -17.863678 -0.000001 0.000001 0.000005 0.929423 5.576942 -27.207587 0.268795 1.755841 -17.405873 0.241909 1.667698 -16.505900 -0.000000 0.000001 -0.000002 1.245067 15.501633 14.388557 13.408629 27.579520 58.870302 0.000007 7.024672 0.000004 -20.446593 -0.364734 6.719949 -1.665261 -0.174476 -4.219021 12.710927 -29.825329 -16.130965 -15.549416 -3.559401 -12.707135 -0.000002 -0.000001 0.000002 0.038559 1.262299 6.823744 0.213720 -1.396028 17.407046 0.046032 -0.653854 8.053217 -0.000000 -0.000001 0.000000 -0.136232 -2.205103 14.998894 0.214452 -1.398346 17.436865 0.239768 -1.476533 18.446265 0.000000 -0.000002 0.000000 0.030609 -3.075758 20.451026 0.308448 -1.668284 20.948539 0.225825 -1.434042 17.897102 0.000000 0.000000 0.000000 0.748878 -4.885240 26.473796 0.214458 -1.398376 17.437248 0.193006 -1.328184 16.535820 -0.000000 0.000000 0.000000 -10.879044 14.668975 10.732842 11.747103 2.011333 4.048112 1.706766 0.459695 -7.118447 -4.935671 -0.000000 0.000002 0.000000 0.000000 -0.000000 0.461934 -10.399783 3.616126 7.646515 -9.663047 -3.296521 -3.687956 -1.801923 3.261946 -7.311711 -0.000007 -0.000000 0.000000 -0.000000 -0.000000 
